<?xml version="1.0" encoding="UTF-8"?>
<svg version="1.1" xmlns="http://www.w3.org/2000/svg" width="500" height="500">
<path d="M0 0 C165 0 330 0 500 0 C500 165 500 330 500 500 C335 500 170 500 0 500 C0 335 0 170 0 0 Z " fill="#FEFEFE" transform="translate(0,0)"/>
<path d="M0 0 C8.58 0 17.16 0 26 0 C26 20.13 26 40.26 26 61 C22.37 61 18.74 61 15 61 C14.67 46.48 14.34 31.96 14 17 C7.565 21.95 7.565 21.95 1 27 C-3 30 -3 30 -5.5625 29.8125 C-8 29 -8 29 -11 27 C-13.64632287 27.3121764 -13.64632287 27.3121764 -16 28 C-16.33 28.99 -16.66 29.98 -17 31 C-16.319375 31.2475 -15.63875 31.495 -14.9375 31.75 C-12.52788102 32.77536978 -10.62347512 33.85549863 -8.4375 35.25 C-5.30155721 37.31231365 -5.30155721 37.31231365 -2.875 36.5 C-1.38356031 35.30684824 0.09228175 34.09420538 1.5625 32.875 C4 31 4 31 7 31 C7 40.57 7 50.14 7 60 C3.04 60 -0.92 60 -5 60 C-4.96132812 57.97746094 -4.96132812 57.97746094 -4.921875 55.9140625 C-5.2687676 52.81992607 -5.62303473 51.39822892 -7.78320312 49.11621094 C-10.20112543 47.37222017 -12.66340401 45.85686427 -15.25 44.375 C-16.10980469 43.83488281 -16.96960938 43.29476562 -17.85546875 42.73828125 C-22.45292779 39.74180003 -22.45292779 39.74180003 -27.72558594 39.29931641 C-29.94478148 39.78892113 -29.94478148 39.78892113 -31 41 C-31.14421154 42.40197402 -31.22686124 43.81042831 -31.28125 45.21875 C-31.31863281 46.06824219 -31.35601562 46.91773438 -31.39453125 47.79296875 C-31.42933594 48.68628906 -31.46414062 49.57960937 -31.5 50.5 C-31.56859443 52.26059038 -31.64128952 54.02102741 -31.71875 55.78125 C-31.76418945 56.9578418 -31.76418945 56.9578418 -31.81054688 58.15820312 C-32 60 -32 60 -33 61 C-34.85287502 61.07226502 -36.70833878 61.0838122 -38.5625 61.0625 C-39.57441406 61.05347656 -40.58632812 61.04445312 -41.62890625 61.03515625 C-42.41136719 61.02355469 -43.19382813 61.01195312 -44 61 C-46.06925112 37.78724703 -46.06925112 37.78724703 -41.92578125 32.5703125 C-39.37434957 30.50271302 -36.82594934 28.79800344 -33.9609375 27.19873047 C-31.67438696 25.80095119 -29.66789854 24.20040492 -27.59375 22.50390625 C-26.46827759 21.58786621 -26.46827759 21.58786621 -25.32006836 20.65332031 C-23.83778086 19.4446637 -22.35678046 18.23442653 -20.87719727 17.02246094 C-15.69822115 12.99242094 -15.69822115 12.99242094 -12.12109375 13.03125 C-10 14 -10 14 -8 15.6875 C-6.07198144 17.28569954 -6.07198144 17.28569954 -3.75 16.5625 C3.11121267 12.79491978 3.11121267 12.79491978 8 7 C7.236875 6.71125 6.47375 6.4225 5.6875 6.125 C3 5 3 5 0 3 C0 2.01 0 1.02 0 0 Z " fill="#5AB084" transform="translate(259,172)"/>
<path d="M0 0 C25 0 25 0 33 3 C37.00141457 7.20661531 38.3326193 10.05475581 38.30078125 15.90234375 C37.82881336 19.19386004 35.94917105 21.38080141 34 24 C33.65766227 27.10721061 33.65766227 27.10721061 35.9375 29.0625 C36.618125 29.701875 37.29875 30.34125 38 31 C39.85987597 34.71975195 39.43094573 38.9403663 39 43 C36.90097171 47.72281365 34.20759924 49.94760737 29.57226562 52.18408203 C24.20705064 53.88591845 18.56693809 53.40165477 13 53.25 C8.71 53.1675 4.42 53.085 0 53 C0 35.51 0 18.02 0 0 Z " fill="#2DCA7A" transform="translate(294,245)"/>
<path d="M0 0 C3.3 0 6.6 0 10 0 C10 18.48 10 36.96 10 56 C6.7 56 3.4 56 0 56 C-0.33 55.34 -0.66 54.68 -1 54 C-1.845625 54.495 -2.69125 54.99 -3.5625 55.5 C-7.48083062 57.209817 -9.76813363 57.5289833 -14 57 C-19.1252584 54.38712317 -22.7107578 50.81615692 -24.5859375 45.265625 C-25.96989489 37.69302794 -26.45757069 28.24246498 -22.25390625 21.51953125 C-19.556312 18.25048401 -17.04205406 16.31388463 -12.7890625 15.66015625 C-7.44799827 15.43835126 -5.94066935 16.03559839 -1 19 C-0.67 12.73 -0.34 6.46 0 0 Z " fill="#2CC97A" transform="translate(384,242)"/>
<path d="M0 0 C3.63 0 7.26 0 11 0 C11.33 7.26 11.66 14.52 12 22 C14.2712607 19.08366525 16.54202446 16.16694592 18.8125 13.25 C19.45509766 12.425 20.09769531 11.6 20.75976562 10.75 C21.38173828 9.95078125 22.00371094 9.1515625 22.64453125 8.328125 C23.50075073 7.22839355 23.50075073 7.22839355 24.37426758 6.10644531 C25.46723508 4.6902982 26.5139565 3.23735487 27.51367188 1.75390625 C29 0 29 0 32.13671875 -0.390625 C33.30847656 -0.34421875 34.48023438 -0.2978125 35.6875 -0.25 C37.45673828 -0.19585937 37.45673828 -0.19585937 39.26171875 -0.140625 C40.61716797 -0.07101563 40.61716797 -0.07101563 42 0 C40.24617082 4.14729018 37.42661022 7.40247786 34.625 10.875 C33.6566524 12.07896159 32.69047762 13.28467426 31.7265625 14.4921875 C31.08581787 15.28665283 31.08581787 15.28665283 30.43212891 16.09716797 C28.50591412 18.65647892 26.76018237 21.32472949 25 24 C25.54527344 24.80743652 26.09054688 25.61487305 26.65234375 26.44677734 C28.66969201 29.43666291 30.68097549 32.43058573 32.69042969 35.42578125 C33.56181975 36.72279435 34.43486175 38.01869916 35.30957031 39.31347656 C36.56488615 41.17225489 37.81425245 43.03490761 39.0625 44.8984375 C39.45622803 45.47870697 39.84995605 46.05897644 40.25561523 46.65682983 C43 50.77225659 43 50.77225659 43 53 C38.21600947 54.40935891 34.73951804 54.67508954 30 53 C24.49648873 47.2890771 20.73234438 39.94217901 17 33 C14.37999614 34.45868476 14.37999614 34.45868476 12 37 C11.46716168 39.93208267 11.21079655 42.31981221 11.1875 45.25 C11.16236328 45.99507813 11.13722656 46.74015625 11.11132812 47.5078125 C11.05266898 49.33797793 11.0234192 51.16904453 11 53 C7.37 53 3.74 53 0 53 C0 35.51 0 18.02 0 0 Z " fill="#2DA176" transform="translate(106,245)"/>
<path d="M0 0 C2.67561779 1.01212508 3.84481315 2.01495948 6 4 C6.8971875 4.7734375 6.8971875 4.7734375 7.8125 5.5625 C10.55274315 8.87963644 10.19538183 12.75792773 10.31640625 16.85546875 C10.33718735 17.51710526 10.35796844 18.17874176 10.37937927 18.86042786 C10.44464727 20.96934852 10.50365344 23.07839135 10.5625 25.1875 C10.60570689 26.61915315 10.64932188 28.05079404 10.69335938 29.48242188 C10.80030506 32.98815154 10.90163641 36.49401786 11 40 C7.37 40 3.74 40 0 40 C0 39.01 0 38.02 0 37 C-1.010625 37.66 -2.02125 38.32 -3.0625 39 C-6.87929874 41.15030915 -9.57934749 41.63152179 -14 41 C-17.65260318 39.58876695 -20.39955764 37.71665701 -22.9375 34.6875 C-24.6704745 30.30409392 -24.64111208 26.72298871 -23 22.3125 C-19.32223164 18.06008034 -15.42992679 16.18737502 -9.80859375 15.75390625 C-6.86104374 15.75042626 -3.94185408 15.82348875 -1 16 C-1.66 13.69 -2.32 11.38 -3 9 C-6.41642759 8.74984127 -6.41642759 8.74984127 -10 9 C-10.99 10.485 -10.99 10.485 -12 12 C-14.6015625 12.29296875 -14.6015625 12.29296875 -17.625 12.1875 C-19.12933594 12.14689453 -19.12933594 12.14689453 -20.6640625 12.10546875 C-21.43492187 12.07066406 -22.20578125 12.03585937 -23 12 C-22.50353055 8.00104058 -21.72536208 6.2487268 -18.5625 3.75 C-17.94503906 3.24984375 -17.32757813 2.7496875 -16.69140625 2.234375 C-11.83152401 -1.3123289 -5.77006869 -0.51944657 0 0 Z " fill="#2FA178" transform="translate(195,258)"/>
<path d="M0 0 C3.63 0 7.26 0 11 0 C11.02505615 0.90355225 11.0501123 1.80710449 11.07592773 2.73803711 C11.17087317 6.0796428 11.27011621 9.42106252 11.37231445 12.76245117 C11.4157163 14.2106424 11.45738744 15.65888654 11.49731445 17.10717773 C11.55489062 19.18489559 11.61862028 21.26234573 11.68359375 23.33984375 C11.72025146 24.59144287 11.75690918 25.84304199 11.79467773 27.13256836 C11.67803906 29.89630504 11.67803906 29.89630504 13 31 C18.32673036 31.33856828 18.32673036 31.33856828 23 29 C23.51146198 26.09386566 23.51146198 26.09386566 23.51171875 22.6796875 C23.54716797 21.42285156 23.58261719 20.16601562 23.61914062 18.87109375 C23.64169922 17.55238281 23.66425781 16.23367188 23.6875 14.875 C23.72066529 13.53512241 23.75515422 12.19527689 23.79101562 10.85546875 C23.87373327 7.5703967 23.94280693 4.28559968 24 1 C27.3 1 30.6 1 34 1 C34 13.87 34 26.74 34 40 C30.7 40 27.4 40 24 40 C24 39.01 24 38.02 24 37 C23.01 37.66 22.02 38.32 21 39 C16.7113997 41.42587492 13.89397387 41.621457 9 41 C3.99890059 38.54663048 2.07647093 36.09300391 0 31 C-0.34057617 27.47314453 -0.34057617 27.47314453 -0.29296875 23.6328125 C-0.28660149 22.61343094 -0.28660149 22.61343094 -0.28010559 21.57345581 C-0.26344266 19.42355076 -0.22581716 17.27461701 -0.1875 15.125 C-0.172437 13.6588678 -0.15875143 12.19272076 -0.14648438 10.7265625 C-0.1135808 7.15073125 -0.06188663 3.57546059 0 0 Z " fill="#2FA177" transform="translate(251,258)"/>
<path d="M0 0 C2.58505957 1.78965663 3.63403626 2.98230439 5.4375 5.6875 C5.4375 7.3375 5.4375 8.9875 5.4375 10.6875 C2.1375 10.6875 -1.1625 10.6875 -4.5625 10.6875 C-5.2225 9.3675 -5.8825 8.0475 -6.5625 6.6875 C-10.02787413 5.69239151 -10.02787413 5.69239151 -13.5625 5.6875 C-15.77650715 7.44912675 -15.77650715 7.44912675 -15.640625 9.66015625 C-14.64600295 12.05193289 -14.64600295 12.05193289 -11.359375 12.99609375 C-10.01508132 13.38873398 -8.66573806 13.76439136 -7.3125 14.125 C-1.79759829 15.59670306 1.76934305 16.99924607 5.4375 21.6875 C6.61672566 25.96493967 5.9655554 29.67539383 3.9375 33.5625 C-1.1108853 37.8536275 -6.74471901 39.29651807 -13.32421875 39.03515625 C-18.84074172 38.17831411 -22.51535098 35.94407883 -26.0625 31.6875 C-27.5625 28.6875 -27.5625 28.6875 -27.5625 24.6875 C-24.18527064 24.40236806 -20.92756648 24.22089209 -17.5625 24.6875 C-15.9375 27.1875 -15.9375 27.1875 -14.5625 29.6875 C-11.77630552 30.16401213 -9.41121142 29.92100094 -6.5625 29.6875 C-6.2325 28.0375 -5.9025 26.3875 -5.5625 24.6875 C-7.09970703 24.23310547 -7.09970703 24.23310547 -8.66796875 23.76953125 C-10.02890028 23.34717319 -11.38956353 22.92394997 -12.75 22.5 C-13.42353516 22.30341797 -14.09707031 22.10683594 -14.79101562 21.90429688 C-19.50828023 20.40857883 -22.28741254 18.55469366 -25.5625 14.6875 C-27.11274464 11.58701072 -26.85242015 9.10855782 -26.5625 5.6875 C-24.39184511 1.86714739 -21.83003662 -0.2599864 -17.6796875 -1.80078125 C-11.42707443 -3.31202168 -5.59949689 -3.36987904 0 0 Z " fill="#31A279" transform="translate(238.5625,260.3125)"/>
<path d="M0 0 C3.63 0 7.26 0 11 0 C11 13.2 11 26.4 11 40 C7.37 40 3.74 40 0 40 C0 26.8 0 13.6 0 0 Z " fill="#33CB7E" transform="translate(341,258)"/>
<path d="M0 0 C3.3 0 6.6 0 10 0 C10 12.87 10 25.74 10 39 C6.7 39 3.4 39 0 39 C0 26.13 0 13.26 0 0 Z " fill="#299F74" transform="translate(154,259)"/>
<path d="M0 0 C3.9375 0.5625 3.9375 0.5625 5.65649414 1.85351562 C7.89918897 4.84548509 7.40797088 8.47167191 7.375 12.0625 C7.39498047 12.83464844 7.41496094 13.60679687 7.43554688 14.40234375 C7.43067425 20.02534842 7.43067425 20.02534842 5.09765625 22.56640625 C2.12812185 23.93572139 0.1705982 24.03399349 -3.0625 23.5625 C-5.36525556 21.6954009 -6.74073871 20.20602259 -8.0625 17.5625 C-8.58881595 12.28208425 -8.57512095 7.82269318 -6.5625 2.875 C-3.92214394 0.43267064 -3.39654008 0.16263359 0 0 Z " fill="#F4FCF8" transform="translate(377.0625,266.4375)"/>
<path d="M0 0 C2.0625 -0.061875 4.125 -0.12375 6.25 -0.1875 C7.99023438 -0.23970703 7.99023438 -0.23970703 9.765625 -0.29296875 C13.25632522 0.02321786 14.61221494 0.47312066 17 3 C17.55956684 6.84702201 17.71977708 9.01292706 15.390625 12.20703125 C10.88742132 15.58443401 5.41110334 14.21644413 0 14 C0 9.38 0 4.76 0 0 Z " fill="#FCFEFD" transform="translate(305,275)"/>
<path d="M0 0 C1.8975 -0.061875 3.795 -0.12375 5.75 -0.1875 C7.35101563 -0.23970703 7.35101563 -0.23970703 8.984375 -0.29296875 C12.33563062 0.0326066 13.66789429 0.60652309 16 3 C16.51020728 7.08165827 16.31361802 8.52957297 14 12 C9.36297289 13.5456757 4.87528349 13.05735628 0 13 C0 8.71 0 4.42 0 0 Z " fill="#FCFEFD" transform="translate(305,254)"/>
<path d="M0 0 C4.64720654 1.16180163 8.53478359 2.60078771 12 6 C12.72175429 8.95263117 12.41697197 10.92483172 12 14 C8.04 14 4.08 14 0 14 C0 9.38 0 4.76 0 0 Z " fill="#60B389" transform="translate(234,218)"/>
<path d="M0 0 C0.48280024 7.36270368 0.48280024 7.36270368 -1.5625 10.0625 C-4.9884055 11.38015596 -7.47239857 10.79870221 -11 10 C-12 9 -12 9 -12.3125 6.125 C-12 3 -12 3 -10.5 1.125 C-6.87739877 -0.50517055 -3.95453342 -0.19772667 0 0 Z " fill="#F3F9F7" transform="translate(194,280)"/>
<path d="M0 0 C1.875 1.1875 1.875 1.1875 3 3 C3.4375 5.5 3.4375 5.5 3 8 C0.87208838 10.2855347 -0.47408328 10.92303658 -3.5625 11.375 C-6 11 -6 11 -7.8125 9.8125 C-9.42525784 7.35092224 -9.4334014 5.88934264 -9 3 C-6.73529086 -0.64869805 -4.03159541 -0.50394943 0 0 Z " fill="#34A47B" transform="translate(162,243)"/>
<path d="M0 0 C3.0625 0.25 3.0625 0.25 6.0625 2.25 C6.46157251 5.37606798 6.53130951 7.39511207 5 10.1875 C1.91037273 11.88181173 -0.60967418 10.98951685 -3.9375 10.25 C-4.9375 9.25 -4.9375 9.25 -5.125 5.8125 C-4.89225795 1.39040105 -4.46921562 0.38035878 0 0 Z " fill="#32CB7D" transform="translate(345.9375,242.75)"/>
<path d="M0 0 C0 3 0 3 -1.75 4.82421875 C-2.4925 5.43910156 -3.235 6.05398437 -4 6.6875 C-4.7425 7.31011719 -5.485 7.93273437 -6.25 8.57421875 C-6.8275 9.04472656 -7.405 9.51523438 -8 10 C-8.33 9.01 -8.66 8.02 -9 7 C-6.03 4.69 -3.06 2.38 0 0 Z " fill="#6AB391" transform="translate(225,200)"/>
</svg>
